<svg xmlns="http://www.w3.org/2000/svg" version="1.1" xmlns:xlink="http://www.w3.org/1999/xlink" xmlns:svgjs="http://svgjs.dev/svgjs" width="1500" height="1687" viewBox="0 0 1500 1687"><g transform="matrix(1,0,0,1,0.00011015625000254659,0)"><svg viewBox="0 0 320 360" data-background-color="#ffffff" preserveAspectRatio="xMidYMid meet" height="1687" width="1500" xmlns="http://www.w3.org/2000/svg" xmlns:xlink="http://www.w3.org/1999/xlink"><g id="tight-bounds" transform="matrix(1,0,0,1,0.000023499999997511622,0)"><svg viewBox="0 0 320 360" height="360" width="320"><g><svg></svg></g><g><svg viewBox="0 0 320 360" height="360" width="320"><g><path transform="translate(-74.99272,-51.79039) scale(4.65793,4.65793)" d="M20.6 59.9l0.8 1-0.4-1.3c-0.1-0.6-0.8 0.1-0.4 0.3M21.5 59.3c0.3 0.5 0.6 1 0.6 1.5 0 0.7 0.6 1 1.1 1.2-0.7-0.8-1.1-3-1.7-2.7M59.9 16.9c1.7 0 3.3-0.2 5.1 0.2 4.4 1.1 8.1 3.3 10.6 6.4l7 11.2c0.3 2.8 0.9 5.9 0.8 9.3 0.7 0 0.6-1 1.4-1.2-0.8 2-1.2 4.5-1.4 7.4-0.5-1.6 0-4 0.1-5.3-0.7 1.1-1.1 0.3-1.1-0.2 0.1-0.8-0.3-0.7-0.6-1-1.1-1-1.8-2.1-2.6-3.8 0.5-1.3 0.6-3.2-1-4.2-0.5-0.3-1.1-0.8-1.4-1.6-0.4-1.1-1.1-2.4-0.9-4.1 0.1-0.5-1.5 1.1-2.4 0.4-3.9-2.7-7.8-5.8-12.5-8.4-2.5 0-4.3-0.9-5.2-2-0.8-1-0.2-2.3 1-2.4 0.7 0 1.5-0.2 2.1 0.2 0.1-0.4 0.5-0.9 1-0.9M50 14.6l0.2 0.1c1 0.2 1.5 1.6 2.6 1.1 0 0.7 0.1 1.4-0.1 1.9-0.3 0.8-1.2 0.8-1.9 0.8-6.7-0.4-10.6 2.4-14.7 4.8-1.1 0.7-2.3 1.2-3.2 2.1-4.3 4-9 7.7-10.1 15.1l-0.9 8.2c-0.1 0.9-1.1 1.8-0.9 2.9l0.7 4.9c-0.7-0.7-1.1 0.2-0.9 0.6 0.1 0.3 0.5 1.3 1.1 0.4 0.8 1.5 1.6 4.4 2.7 5.7 3.4 4 7.8 7.6 11.4 11.2 0.9-0.2 1.6-0.2 1.8-0.8 0.3 0.6-0.3 1.2-0.8 1.3 1.6 1 3.4 1.9 5.8 2.1 3.1 0.2 6 0.7 8.7 1.4 1.4-0.4 2.8-0.6 4.3-0.7 0.5 0 0.8-0.8 1.4-1l0.1-1c0.6 0.9 0.5-0.3 0.1-0.9 0.7 0.6 0.9 1.1 1.2 1.5 0-0.3 0.8-1.4 0.8-0.1l0.2-1.3c0.3-0.2 0.4 1.1 0.7 0.2 0.3-0.9 0.9-0.2 1.5-0.5-0.2 0.4-0.1 1.2 0.6 0.7l0.8-0.7c0.5 1.2 1.3 0.7 1.7 0.5 4.4-2.8 8.8-6.1 13-9.4l-0.1 1.3 0.5-1.6c0.5 0.5 0.9 0.1 1.1-0.2 0.6-1 1.4-2 2.7-2.9-1.6 4.3-3.5 7.7-5.9 10.5l-1 1.2c0 0.7-0.2 1.6-1 1.7-0.4 0.1-1.2-0.2-1.8 0.4-0.3 0.4 0.7 1.2-0.1 0.6-0.7-0.5-1.4 0-2.2 0.2-0.6 0.2 0.4 0.8 0.6 1.2 0.2 0.4 0.4 0.8 0.3 1.3l-1.1-1.2c-1.3 0.7-2.1 2-3.2 3-0.5 0.4-0.3 1.1-0.3 1.7-0.7 0-1.5-0.2-1.9 0.2-0.3 0.4-0.2 1-0.2 1.6-1-0.1-1.1-1.6-2-1.3-0.9 0.2-1.9 0.3-2.7 0.8 0.6 1.2-1 0.5-0.8 0.7-1.5-0.9-2.8-1.6-4.4-1-3.4-1.1-7.6-0.6-10.7-0.2 0-0.5 0.1-1-0.1-1.1-0.2 0.5-0.8 0.3-0.7 0.3-1.9-1.3-3.8-2.1-5.8-3.2-1.8 0.2-3.5-0.7-4-1.2-1.4-1.3-3-0.6-4.3-0.9-2.8-0.7-3.8-3.6-4.1-5.6-0.2-1-1-1.4-1.3-1.3-1.3-4.2-3.3-8-4.9-11.9-0.4-1-0.3-2-0.3-3.1 0.5 0.2 1 0.1 0.9-0.6-0.5-3.3-1.7-5.8-3-8.2 0.7-3.4 0.8-7.4 2.4-10.4 1.4-2.7 4-4.1 5.8-6.4 0.6-0.8 0.6-1.9 1.2-2.6 2-2 4-4.1 6.2-5.9 1-0.8 2.2 0 3.7-0.3 0.5-1.8 2.5-3.4 4.4-2.9 0.8 0.2 2.4-1.9 2.9-2.1 0.8-0.3 0.4 0.8 0.4 1.5 1.9-1.5 4.5-2.3 6.9-3.2" fill="#ff5858" fill-rule="nonzero" stroke="none" stroke-width="1" stroke-linecap="butt" stroke-linejoin="miter" stroke-miterlimit="10" stroke-dasharray="" stroke-dashoffset="0" font-family="none" font-weight="none" font-size="none" text-anchor="none" style="mix-blend-mode: normal" data-fill-palette-color="tertiary"></path></g><g transform="matrix(1,0,0,1,64,117.52945767608152)"><svg viewBox="0 0 192 124.94108464783696" height="124.94108464783696" width="192"><g><svg viewBox="0 0 192 124.94108464783696" height="124.94108464783696" width="192"><g><svg viewBox="0 0 192 124.94108464783696" height="124.94108464783696" width="192"><g transform="matrix(1,0,0,1,0,75.51670138005005)"><svg viewBox="0 0 192 49.42438326778691" height="49.42438326778691" width="192"><g id="textblocktransform"><svg viewBox="0 0 192 49.42438326778691" height="49.42438326778691" width="192" id="textblock"><g><svg viewBox="0 0 192 49.42438326778691" height="49.42438326778691" width="192"><g transform="matrix(1,0,0,1,0,0)"><svg width="192" viewBox="1.5 -35.5 139.84 36" height="49.42438326778691" data-palette-color="#ff5858"><path d="M15.6 0L15.6 0Q14.2 0 13.3-0.88 12.4-1.75 12.4-3.05L12.4-3.05 12.4-32.05 18.9-32.05 18.9-3.05Q18.9-1.75 17.98-0.88 17.05 0 15.6 0ZM26.75-29.25L4.55-29.25Q3.25-29.25 2.38-30.05 1.5-30.85 1.5-32.15L1.5-32.15Q1.5-33.45 2.38-34.23 3.25-35 4.55-35L4.55-35 26.75-35Q28.05-35 28.93-34.2 29.8-33.4 29.8-32.1L29.8-32.1Q29.8-30.8 28.93-30.03 28.05-29.25 26.75-29.25L26.75-29.25ZM66.25-17.5L66.25-17.5Q66.25-13.75 65-10.5 63.75-7.25 61.47-4.78 59.2-2.3 56.07-0.9 52.95 0.5 49.25 0.5L49.25 0.5Q45.55 0.5 42.45-0.9 39.35-2.3 37.07-4.78 34.8-7.25 33.55-10.5 32.3-13.75 32.3-17.5L32.3-17.5Q32.3-21.25 33.55-24.5 34.8-27.75 37.07-30.23 39.35-32.7 42.45-34.1 45.55-35.5 49.25-35.5L49.25-35.5Q52.95-35.5 56.07-34.1 59.2-32.7 61.47-30.23 63.75-27.75 65-24.5 66.25-21.25 66.25-17.5ZM59.75-17.5L59.75-17.5Q59.75-20.85 58.4-23.58 57.05-26.3 54.7-27.9 52.35-29.5 49.25-29.5L49.25-29.5Q46.15-29.5 43.8-27.9 41.45-26.3 40.12-23.6 38.8-20.9 38.8-17.5L38.8-17.5Q38.8-14.15 40.12-11.43 41.45-8.7 43.8-7.1 46.15-5.5 49.25-5.5L49.25-5.5Q52.35-5.5 54.7-7.1 57.05-8.7 58.4-11.43 59.75-14.15 59.75-17.5ZM75.15 0L75.15 0Q73.75 0 72.87-0.88 72-1.75 72-3.05L72-3.05 72-31.95Q72-33.25 72.87-34.13 73.75-35 75.05-35L75.05-35 91.3-35Q92.59-35 93.47-34.18 94.34-33.35 94.34-32.05L94.34-32.05Q94.34-30.95 93.47-30.1 92.59-29.25 91.3-29.25L91.3-29.25 77.8-29.25 78.25-29.85 78.25-19.8 77.9-20.45 89.05-20.45Q90.34-20.45 91.22-19.63 92.09-18.8 92.09-17.5L92.09-17.5Q92.09-16.4 91.22-15.55 90.34-14.7 89.05-14.7L89.05-14.7 77.8-14.7 78.25-15.15 78.25-3.05Q78.25-1.75 77.32-0.88 76.4 0 75.15 0ZM106.34-31.95L106.34-3.05Q106.34-1.75 105.39-0.88 104.44 0 103.19 0L103.19 0Q101.79 0 100.94-0.88 100.09-1.75 100.09-3.05L100.09-3.05 100.09-31.95Q100.09-33.25 100.99-34.13 101.89-35 103.29-35L103.29-35Q104.49-35 105.42-34.13 106.34-33.25 106.34-31.95L106.34-31.95ZM137.94 0L137.94 0Q136.54 0 135.69-1.15L135.69-1.15 124.14-16.35 128.69-21 140.64-5.2Q141.34-4.25 141.34-3.15L141.34-3.15Q141.34-1.75 140.29-0.88 139.24 0 137.94 0ZM138.54-35.25L138.54-35.25Q139.74-35.25 140.52-34.27 141.29-33.3 141.29-32.3L141.29-32.3Q141.29-31.25 140.39-30.35L140.39-30.35 119.44-10.3 119.19-17.45 136.09-34.1Q137.24-35.25 138.54-35.25ZM116.94 0L116.94 0Q115.54 0 114.69-0.88 113.84-1.75 113.84-3.05L113.84-3.05 113.84-31.95Q113.84-33.25 114.74-34.13 115.64-35 117.04-35L117.04-35Q118.44-35 119.27-34.13 120.09-33.25 120.09-31.95L120.09-31.95 120.09-3.05Q120.09-1.75 119.24-0.88 118.39 0 116.94 0Z" opacity="1" transform="matrix(1,0,0,1,0,0)" fill="#ff5858" class="wordmark-text-0" data-fill-palette-color="primary" id="text-0"></path></svg></g></svg></g></svg></g></svg></g><g transform="matrix(1,0,0,1,61.847751161959245,0)"><svg viewBox="0 0 68.30449767608151 68.30449767608151" height="68.30449767608151" width="68.30449767608151"><g><svg xmlns="http://www.w3.org/2000/svg" xmlns:xlink="http://www.w3.org/1999/xlink" version="1.1" x="0" y="0" viewBox="5 5 90 90" enable-background="new 0 0 100 100" xml:space="preserve" height="68.30449767608151" width="68.30449767608151" class="icon-icon-0" data-fill-palette-color="accent" id="icon-0"><path fill="#ed2647" d="M95 52c0-12.871-5.692-24.431-14.682-32.318C72.431 10.692 60.871 5 48 5 24.29 5 5 24.29 5 48c0 12.868 5.69 24.426 14.677 32.313C27.564 89.306 39.126 95 52 95c0.084 0 0.166-0.006 0.25-0.006S52.416 95 52.5 95C75.972 95 95 75.972 95 52.5c0-0.084-0.006-0.166-0.006-0.25S95 52.084 95 52zM21.828 73.371c-4.245-5.978-6.77-13.259-6.822-21.121 0.135-20.511 16.732-37.109 37.244-37.244 7.862 0.052 15.144 2.577 21.121 6.822C80.224 28.473 84.5 37.758 84.5 48c0 20.126-16.374 36.5-36.5 36.5C37.758 84.5 28.473 80.224 21.828 73.371zM6 48C6 24.841 24.841 6 48 6c9.858 0 18.926 3.422 26.1 9.13C67.637 11.242 60.076 9 52 9 28.29 9 9 28.29 9 52c0 8.074 2.241 15.633 6.127 22.095C9.421 66.923 6 57.856 6 48zM52 89c-10.08 0-19.227-4.055-25.905-10.615C32.269 82.854 39.838 85.5 48 85.5c20.678 0 37.5-16.822 37.5-37.5 0-8.162-2.646-15.731-7.115-21.905C84.945 32.773 89 41.92 89 52 89 72.402 72.402 89 52 89z" data-fill-palette-color="accent"></path></svg></g></svg></g><g></g></svg></g></svg></g></svg></g></svg></g><defs></defs></svg><rect width="320" height="360" fill="none" stroke="none" visibility="hidden"></rect></g></svg></g></svg>