<svg xmlns="http://www.w3.org/2000/svg" version="1.1" xmlns:xlink="http://www.w3.org/1999/xlink" xmlns:svgjs="http://svgjs.dev/svgjs" width="2000" height="1247" viewBox="0 0 2000 1247"><g transform="matrix(1,0,0,1,-1.2121212121212466,0.504858299595071)"><svg viewBox="0 0 396 247" data-background-color="#ffffff" preserveAspectRatio="xMidYMid meet" height="1247" width="2000" xmlns="http://www.w3.org/2000/svg" xmlns:xlink="http://www.w3.org/1999/xlink"><g id="tight-bounds" transform="matrix(1,0,0,1,0.2400000000000091,-0.09999999999999432)"><svg viewBox="0 0 395.52 247.2" height="247.2" width="395.52"><g><svg></svg></g><g><svg viewBox="0 0 395.52 247.2" height="247.2" width="395.52"><g transform="matrix(1,0,0,1,109.81955076923076,47.215199999999996)"><svg viewBox="0 0 175.88089846153846 152.7696" height="152.7696" width="175.88089846153846"><g><svg viewBox="0 0 175.88089846153846 152.7696" height="152.7696" width="175.88089846153846"><g><svg viewBox="0 0 175.88089846153846 152.7696" height="152.7696" width="175.88089846153846"><g><svg viewBox="0 0 175.88089846153846 152.7696" height="152.7696" width="175.88089846153846"><g id="textblocktransform"><svg viewBox="0 0 175.88089846153846 152.7696" height="152.7696" width="175.88089846153846" id="textblock"><g><svg viewBox="0 0 175.88089846153846 152.7696" height="152.7696" width="175.88089846153846"><g transform="matrix(1,0,0,1,0,0)"><svg width="175.88089846153846" viewBox="-0.73 -37.01 43.839999999999996 38.08" height="152.7696" data-palette-color="#ed2647"><path d="M22.9-34.91L22.9-34.91Q22.8-34.72 22.83-34.52 22.85-34.33 22.85-34.08L22.85-34.08Q22.75-33.5 22.85-33.5 22.95-33.5 22.95-33.4L22.95-33.4 22.61-32.91Q22.61-32.62 22.49-32.37 22.36-32.13 22.41-31.79L22.41-31.79Q22.27-31.54 22.14-31.3 22.02-31.05 21.78-30.81L21.78-30.81 21.14-30.81Q20.61-30.81 20-30.74 19.38-30.66 18.8-30.66L18.8-30.66Q18.7-30.66 18.55-30.69 18.41-30.71 18.26-30.71L18.26-30.71Q18.16-30.71 18.02-30.69 17.87-30.66 17.68-30.66L17.68-30.66Q16.94-30.66 16.24-30.74 15.53-30.81 14.75-30.81L14.75-30.81Q14.55-30.81 14.36-30.81 14.16-30.81 13.92-30.76L13.92-30.76Q13.87-29.93 13.84-29.08 13.82-28.22 13.82-27.34L13.82-27.34Q13.82-27.1 13.77-26.83 13.72-26.56 13.72-26.32L13.72-26.32Q13.67-25.68 13.65-25.1 13.62-24.51 13.62-23.88L13.62-23.88Q13.62-22.51 13.65-21.14 13.67-19.78 13.72-18.36L13.72-18.36Q13.77-17.63 13.82-16.94 13.87-16.26 13.87-15.53L13.87-15.53Q13.87-13.87 13.82-12.23 13.77-10.6 13.77-8.94L13.77-8.94Q13.77-8.4 13.72-7.93 13.67-7.47 13.67-6.93L13.67-6.93Q13.67-5.81 13.72-4.69 13.77-3.56 13.77-2.44L13.77-2.44Q13.77-1.9 13.75-1.37 13.72-0.83 13.72-0.29L13.72-0.29Q13.48 0.1 13.38 0.39 13.28 0.68 12.79 0.68L12.79 0.68Q12.45 0.59 12.48 0.46 12.5 0.34 12.4 0.24L12.4 0.24Q11.96 0.2 11.74 0.32 11.52 0.44 11.23 0.54L11.23 0.54Q11.08 0.49 10.91 0.49 10.74 0.49 10.6 0.49L10.6 0.49Q10.5 0.49 10.4 0.56 10.3 0.63 9.96 0.63L9.96 0.63Q9.67 0.68 9.62 0.54 9.57 0.39 9.33 0.39L9.33 0.39Q9.08 0.54 8.76 0.61 8.45 0.68 8.15 0.68L8.15 0.68Q7.86 0.49 7.89 0.32 7.91 0.15 7.81-0.05L7.81-0.05Q7.76-0.15 7.64-0.32 7.52-0.49 7.42-0.59L7.42-0.59Q7.52-1.27 7.57-1.81 7.62-2.34 7.62-2.98L7.62-2.98Q7.62-4.25 7.52-5.47 7.42-6.69 7.42-7.96L7.42-7.96Q7.42-8.35 7.52-8.79 7.62-9.23 7.62-9.72L7.62-9.72Q7.52-10.11 7.57-10.18 7.62-10.25 7.62-10.35L7.62-10.35Q7.62-10.64 7.59-10.94 7.57-11.23 7.57-11.52L7.57-11.52Q7.57-12.11 7.59-12.7 7.62-13.28 7.62-13.87L7.62-13.87Q7.62-14.11 7.59-14.38 7.57-14.65 7.57-14.89L7.57-14.89Q7.52-15.33 7.54-15.82 7.57-16.31 7.57-16.8L7.57-16.8Q7.57-19.14 7.5-21.44 7.42-23.73 7.42-26.07L7.42-26.07Q7.42-27.2 7.54-28.37 7.67-29.54 7.67-30.71L7.67-30.71Q7.67-30.86 7.57-31.1 7.47-31.35 7.37-31.45L7.37-31.45Q7.13-31.45 6.91-31.47 6.69-31.49 6.45-31.49L6.45-31.49Q5.91-31.49 5.42-31.35L5.42-31.35Q4.49-31.3 3.64-31.23 2.78-31.15 1.9-31.1L1.9-31.1Q1.32-31.15 1.2-31.13 1.07-31.1 0.93-31.1L0.93-31.1Q0.54-31.1 0.34-31.3L0.34-31.3 0.34-31.93Q0.05-32.52 0.1-32.57 0.15-32.62 0.15-32.71L0.15-32.71Q0.15-32.86-0.12-33.03-0.39-33.2-0.39-33.59L-0.39-33.59Q-0.44-33.98-0.59-34.18-0.73-34.38-0.73-34.57L-0.73-34.57Q-0.73-34.91-0.59-35.35L-0.59-35.35Q-0.15-35.6 0.27-35.69 0.68-35.79 1.22-35.94L1.22-35.94Q1.51-36.04 1.76-36.13 2-36.23 2.29-36.28L2.29-36.28Q2.64-36.33 2.98-36.33 3.32-36.33 3.66-36.38L3.66-36.38Q4.39-36.52 5.2-36.62 6.01-36.72 6.74-36.72L6.74-36.72Q7.42-36.72 8.11-36.55 8.79-36.38 9.33-36.38L9.33-36.38Q10.11-36.38 10.82-36.28 11.52-36.18 12.3-36.18L12.3-36.18Q12.4-36.18 12.62-36.11 12.84-36.04 13.13-36.04L13.13-36.04 17.87-36.04Q18.26-35.94 18.43-35.99 18.6-36.04 18.75-36.04L18.75-36.04Q19.14-36.04 19.48-35.99 19.82-35.94 20.21-35.94L20.21-35.94Q20.56-35.94 20.75-35.99L20.75-35.99Q21.14-35.94 21.48-35.77 21.83-35.6 22.27-35.6L22.27-35.6Q22.46-35.45 22.56-35.23 22.66-35.01 22.9-34.91ZM42.33-6.84L42.33-6.84Q42.72-6.2 42.92-5.62 43.11-5.03 43.11-4.79L43.11-4.79Q43.11-4.44 42.99-4.22 42.87-4 42.67-3.76L42.67-3.76Q40.72-2.93 38.79-2.22 36.86-1.51 34.86-0.83L34.86-0.83Q34.37-0.68 33.91-0.51 33.44-0.34 32.91-0.24L32.91-0.24Q32.81-0.15 32.57-0.05 32.32 0.05 32 0.15 31.69 0.24 31.39 0.32 31.1 0.39 31 0.39L31 0.39Q30.91 0.15 30.81 0.1 30.71 0.05 30.61 0L30.61 0Q30.37 0 30.3 0.17 30.22 0.34 29.98 0.44L29.98 0.44Q29.73 0.44 29.54 0.46 29.34 0.49 29.2 0.39L29.2 0.39Q28.81 0.49 28.49 0.73 28.17 0.98 27.78 1.07L27.78 1.07Q27.05 0.88 26.88 0.9 26.71 0.93 26.51 0.98L26.51 0.98Q26.17 0.68 26.19 0.15 26.22-0.39 25.93-0.73L25.93-0.73Q25.93-1.37 25.83-1.44 25.73-1.51 25.73-1.61L25.73-1.61Q25.73-1.95 25.78-2.25 25.83-2.54 25.73-2.88L25.73-2.88Q25.93-3.71 25.88-4.49 25.83-5.27 25.93-6.05L25.93-6.05Q25.93-6.3 25.95-6.52 25.97-6.74 25.97-6.98L25.97-6.98Q25.97-7.71 26.07-7.89 26.17-8.06 26.17-8.3L26.17-8.3Q26.17-8.64 26.14-8.96 26.12-9.28 26.12-9.67L26.12-9.67Q26.12-10.35 26.14-11.01 26.17-11.67 26.17-12.4L26.17-12.4Q26.17-14.26 25.93-16.11 25.68-17.97 25.68-19.82L25.68-19.82Q25.68-22.07 25.44-24.27 25.19-26.46 25.19-28.71L25.19-28.71Q25.19-29.1 25.19-29.81 25.19-30.52 25.19-31.27 25.19-32.03 25.22-32.71 25.24-33.4 25.29-33.69L25.29-33.69Q25.29-33.74 25.58-33.84 25.88-33.94 25.97-33.94L25.97-33.94Q26.22-33.94 26.36-33.81 26.51-33.69 26.71-33.59L26.71-33.59Q27.59-33.69 27.76-33.76 27.93-33.84 28.02-33.84L28.02-33.84Q28.32-33.84 28.49-33.69 28.66-33.54 28.76-33.54L28.76-33.54Q29.59-33.74 29.66-33.59 29.73-33.45 29.98-33.45L29.98-33.45Q30.61-33.64 30.76-33.59 30.91-33.54 31.05-33.54L31.05-33.54Q31.3-33.54 31.59-33.72 31.88-33.89 32.13-33.98L32.13-33.98Q32.96-34.23 33.49-34.47L33.49-34.47Q34.23-34.91 34.59-35.06 34.96-35.21 35.35-35.4L35.35-35.4Q36.18-35.74 36.94-36.11 37.69-36.47 38.52-36.87L38.52-36.87Q38.67-36.87 38.84-36.89 39.01-36.91 39.11-37.01L39.11-37.01Q39.26-36.96 39.43-36.96 39.6-36.96 39.74-36.96L39.74-36.96Q40.23-36.77 40.38-36.72L40.38-36.72Q40.57-36.43 40.74-36.16 40.92-35.89 41.16-35.64L41.16-35.64Q41.4-35.21 41.55-35.21L41.55-35.21Q41.55-35.06 41.4-34.89 41.26-34.72 41.26-34.57L41.26-34.57Q41.65-33.89 41.89-33.3 42.14-32.71 42.14-32.47L42.14-32.47Q42.14-32.13 42.04-31.91 41.94-31.69 41.79-31.45L41.79-31.45Q39.94-30.57 38.06-29.71 36.18-28.86 34.23-28.03L34.23-28.03Q33.74-27.83 33.3-27.61 32.86-27.39 32.32-27.29L32.32-27.29Q32.22-27.2 31.88-27.12 31.54-27.05 31.35-27.05L31.35-27.05Q31.44-26.22 31.47-25.42 31.49-24.61 31.54-23.78L31.54-23.78Q31.59-23.1 31.71-22.34 31.83-21.58 31.93-20.85L31.93-20.85Q33.54-21.53 35.13-22.22 36.72-22.9 38.33-23.58L38.33-23.58Q38.62-23.54 38.94-23.49 39.26-23.44 39.55-23.34L39.55-23.34Q39.65-23.24 39.74-23.1 39.84-22.95 39.99-22.85L39.99-22.85Q39.94-22.61 40.31-22.12 40.67-21.63 40.67-21.39L40.67-21.39Q40.67-21 40.77-20.92 40.87-20.85 40.96-20.51L40.96-20.51Q41.01-20.02 40.96-19.97L40.96-19.97Q41.21-19.73 41.35-19.48 41.5-19.24 41.5-18.9L41.5-18.9Q40.82-18.07 40.13-17.8 39.45-17.53 38.77-17.24L38.77-17.24Q38.52-17.14 38.25-16.97 37.99-16.8 37.74-16.7L37.74-16.7Q37.35-16.55 36.98-16.43 36.62-16.31 36.23-16.11L36.23-16.11Q35.59-15.77 34.93-15.36 34.27-14.94 33.59-14.79L33.59-14.79Q33.05-14.65 32.88-14.48 32.71-14.31 32.32-14.01L32.32-14.01 32.32-12.7 32.32-10.25Q32.32-9.77 32.32-9.25 32.32-8.74 32.27-8.2L32.27-8.2Q32.18-7.71 32.18-7.37L32.18-7.37 32.18-6.59Q32.42-6.69 32.66-6.76 32.91-6.84 33.15-6.93L33.15-6.93Q33.35-6.98 33.52-6.98 33.69-6.98 33.88-7.08L33.88-7.08Q34.13-7.13 34.27-7.18 34.42-7.23 34.62-7.32L34.62-7.32Q35.35-7.71 35.74-7.84 36.13-7.96 36.52-8.11L36.52-8.11Q37.35-8.4 38.13-8.72 38.91-9.03 39.69-9.33L39.69-9.33Q40.18-9.23 40.38-9.47L40.38-9.47Q40.62-9.42 40.79-9.38 40.96-9.33 41.21-9.33L41.21-9.33Q41.79-8.79 41.94-8.5 42.09-8.2 42.33-7.96L42.33-7.96Q42.58-7.52 42.67-7.52L42.67-7.52Q42.67-7.42 42.53-7.2 42.38-6.98 42.33-6.84Z" opacity="1" transform="matrix(1,0,0,1,0,0)" fill="#ed2647" class="wordmark-text-0" data-fill-palette-color="primary" id="text-0"></path></svg></g></svg></g></svg></g></svg></g></svg></g></svg></g></svg></g><g><path d="M0 123.6c0-68.262 55.338-123.6 123.6-123.6 30.402 0 58.24 10.976 79.768 29.183l-11.147 0c-19.26-14.022-42.974-22.294-68.621-22.295-64.458 0-116.712 52.254-116.712 116.712 0 64.458 52.254 116.712 116.712 116.712 25.647 0 49.361-8.272 68.621-22.295h11.147c-21.528 18.206-49.366 29.183-79.768 29.183-68.262 0-123.6-55.338-123.6-123.6z" fill="#ed2647" stroke="transparent" data-fill-palette-color="tertiary"></path></g></svg></g><defs></defs></svg><rect width="395.52" height="247.2" fill="none" stroke="none" visibility="hidden"></rect></g></svg></g></svg>